<?xml version="1.0" encoding="us-ascii" standalone="no"?><svg xmlns="http://www.w3.org/2000/svg" xmlns:xlink="http://www.w3.org/1999/xlink" contentStyleType="text/css" height="968.75px" preserveAspectRatio="none" style="width:1279px;height:968px;background:#FFFFFF;" version="1.1" viewBox="0 0 1279 968" width="1279.6875px" zoomAndPan="magnify"><defs/><g><!--cluster Kubernetes Cluster--><g id="cluster_Kubernetes Cluster"><path d="M13.2813,9.375 L230.4688,9.375 A5.8594,5.8594 0 0 1 234.375,13.2813 L245.3125,40.5762 L767.9688,40.5762 A3.9063,3.9063 0 0 1 771.875,44.4824 L771.875,775.4844 A3.9063,3.9063 0 0 1 767.9688,779.3906 L13.2813,779.3906 A3.9063,3.9063 0 0 1 9.375,775.4844 L9.375,13.2813 A3.9063,3.9063 0 0 1 13.2813,9.375 " fill="#ADD8E6" style="stroke:#000000;stroke-width:2.34375;"/><line style="stroke:#000000;stroke-width:2.34375;" x1="9.375" x2="245.3125" y1="40.5762" y2="40.5762"/><text fill="#000000" font-family="sans-serif" font-size="18.75" font-weight="bold" lengthAdjust="spacing" textLength="215.625" x="15.625" y="29.9042">Kubernetes Cluster</text></g><!--cluster Development Environment--><g id="cluster_Development Environment"><path d="M50.7813,71.875 L341.4063,71.875 A5.8594,5.8594 0 0 1 345.3125,75.7813 L356.25,103.0762 L730.4688,103.0762 A3.9063,3.9063 0 0 1 734.375,106.9824 L734.375,655.2188 A3.9063,3.9063 0 0 1 730.4688,659.125 L50.7813,659.125 A3.9063,3.9063 0 0 1 46.875,655.2188 L46.875,75.7813 A3.9063,3.9063 0 0 1 50.7813,71.875 " fill="#FFFFFF" style="stroke:#000000;stroke-width:2.34375;"/><line style="stroke:#000000;stroke-width:2.34375;" x1="46.875" x2="356.25" y1="103.0762" y2="103.0762"/><text fill="#000000" font-family="sans-serif" font-size="18.75" font-weight="bold" lengthAdjust="spacing" textLength="289.0625" x="53.125" y="92.4042">Development Environment</text></g><!--cluster ClientPC--><g id="cluster_ClientPC"><path d="M1100.7813,410.7969 L1200.7813,410.7969 A5.8594,5.8594 0 0 1 1204.6875,414.7031 L1215.625,441.998 L1264.8438,441.998 A3.9063,3.9063 0 0 1 1268.75,445.9043 L1268.75,534.9531 A3.9063,3.9063 0 0 1 1264.8438,538.8594 L1100.7813,538.8594 A3.9063,3.9063 0 0 1 1096.875,534.9531 L1096.875,414.7031 A3.9063,3.9063 0 0 1 1100.7813,410.7969 " fill="none" style="stroke:#000000;stroke-width:2.34375;"/><line style="stroke:#000000;stroke-width:2.34375;" x1="1096.875" x2="1215.625" y1="441.998" y2="441.998"/><text fill="#000000" font-family="sans-serif" font-size="18.75" font-weight="bold" lengthAdjust="spacing" textLength="98.4375" x="1103.125" y="431.326">Client PC</text></g><!--cluster Elastic Cloud--><g id="cluster_Elastic Cloud"><path d="M421.0938,830.9531 L563.2813,830.9531 A5.8594,5.8594 0 0 1 567.1875,834.8594 L578.125,862.1543 L603.9063,862.1543 A3.9063,3.9063 0 0 1 607.8125,866.0605 L607.8125,955.125 A3.9063,3.9063 0 0 1 603.9063,959.0313 L421.0938,959.0313 A3.9063,3.9063 0 0 1 417.1875,955.125 L417.1875,834.8594 A3.9063,3.9063 0 0 1 421.0938,830.9531 " fill="none" style="stroke:#000000;stroke-width:2.34375;"/><line style="stroke:#000000;stroke-width:2.34375;" x1="417.1875" x2="578.125" y1="862.1543" y2="862.1543"/><text fill="#000000" font-family="sans-serif" font-size="18.75" font-weight="bold" lengthAdjust="spacing" textLength="140.625" x="423.4375" y="851.4823">Elastic Cloud</text></g><!--entity OpenTelemetryInfra--><g id="elem_OpenTelemetryInfra"><rect fill="#F1F1F1" height="53.0762" rx="3.9063" ry="3.9063" style="stroke:#181818;stroke-width:1.5625;" width="228.125" x="398.4375" y="701.3125"/><text fill="#000000" font-family="sans-serif" font-size="18.75" lengthAdjust="spacing" textLength="196.875" x="414.0625" y="734.3417">OpenTelemetry Infra</text></g><!--entity GatewayIngress--><g id="elem_GatewayIngress"><rect fill="#B3F542" height="53.0762" rx="3.9063" ry="3.9063" style="stroke:#181818;stroke-width:1.5625;" width="192.1875" x="517.9688" y="121.875"/><text fill="#000000" font-family="sans-serif" font-size="18.75" lengthAdjust="spacing" textLength="160.9375" x="533.5938" y="154.9042">Gateway Ingress</text></g><!--entity GatewaySvc--><g id="elem_GatewaySvc"><rect fill="#B3F542" height="53.0762" rx="3.9063" ry="3.9063" style="stroke:#181818;stroke-width:1.5625;" width="190.625" x="518.75" y="207.7656"/><text fill="#000000" font-family="sans-serif" font-size="18.75" lengthAdjust="spacing" textLength="159.375" x="534.375" y="240.7948">Gateway Service</text></g><!--entity GatewayPod1--><g id="elem_GatewayPod1"><rect fill="#B3F542" height="53.0762" rx="3.9063" ry="3.9063" style="stroke:#181818;stroke-width:1.5625;" width="176.5625" x="71.0938" y="315.5313"/><text fill="#000000" font-family="sans-serif" font-size="18.75" lengthAdjust="spacing" textLength="145.3125" x="86.7188" y="348.5604">Gateway Pod 1</text></g><!--entity GatewayPod2--><g id="elem_GatewayPod2"><rect fill="#B3F542" height="53.0762" rx="3.9063" ry="3.9063" style="stroke:#181818;stroke-width:1.5625;" width="176.5625" x="302.3438" y="315.5313"/><text fill="#000000" font-family="sans-serif" font-size="18.75" lengthAdjust="spacing" textLength="145.3125" x="317.9688" y="348.5604">Gateway Pod 2</text></g><!--entity GatewayPod3--><g id="elem_GatewayPod3"><rect fill="#B3F542" height="53.0762" rx="3.9063" ry="3.9063" style="stroke:#181818;stroke-width:1.5625;" width="176.5625" x="533.5938" y="315.5313"/><text fill="#000000" font-family="sans-serif" font-size="18.75" lengthAdjust="spacing" textLength="145.3125" x="549.2188" y="348.5604">Gateway Pod 3</text></g><!--entity HelloSvc--><g id="elem_HelloSvc"><rect fill="#F5A442" height="53.0762" rx="3.9063" ry="3.9063" style="stroke:#181818;stroke-width:1.5625;" width="156.25" x="353.125" y="460.7969"/><text fill="#000000" font-family="sans-serif" font-size="18.75" lengthAdjust="spacing" textLength="125" x="368.75" y="493.826">Hello Service</text></g><!--entity HelloPod1--><g id="elem_HelloPod1"><rect fill="#FFA500" height="53.0762" rx="3.9063" ry="3.9063" style="stroke:#181818;stroke-width:1.5625;" width="142.1875" x="169.5313" y="581.0469"/><text fill="#000000" font-family="sans-serif" font-size="18.75" lengthAdjust="spacing" textLength="110.9375" x="185.1563" y="614.076">Hello Pod 1</text></g><!--entity HelloPod2--><g id="elem_HelloPod2"><rect fill="#FFA500" height="53.0762" rx="3.9063" ry="3.9063" style="stroke:#181818;stroke-width:1.5625;" width="142.1875" x="366.4063" y="581.0469"/><text fill="#000000" font-family="sans-serif" font-size="18.75" lengthAdjust="spacing" textLength="110.9375" x="382.0313" y="614.076">Hello Pod 2</text></g><!--entity HelloPod3--><g id="elem_HelloPod3"><rect fill="#FFA500" height="53.0762" rx="3.9063" ry="3.9063" style="stroke:#181818;stroke-width:1.5625;" width="142.1875" x="563.2813" y="581.0469"/><text fill="#000000" font-family="sans-serif" font-size="18.75" lengthAdjust="spacing" textLength="110.9375" x="578.9063" y="614.076">Hello Pod 3</text></g><!--entity HelloPod--><g id="elem_HelloPod"><rect fill="#FFA500" height="53.0762" rx="3.9063" ry="3.9063" style="stroke:#181818;stroke-width:1.5625;" width="123.4375" x="1121.0938" y="460.7969"/><text fill="#000000" font-family="sans-serif" font-size="18.75" lengthAdjust="spacing" textLength="92.1875" x="1136.7188" y="493.826">Hello Pod</text></g><!--entity apm_server--><g id="elem_apm_server"><rect fill="#F1F1F1" height="53.0762" rx="3.9063" ry="3.9063" style="stroke:#181818;stroke-width:1.5625;" width="140.625" x="442.1875" y="880.9531"/><text fill="#000000" font-family="sans-serif" font-size="18.75" lengthAdjust="spacing" textLength="109.375" x="457.8125" y="913.9823">APM Server</text></g><!--entity Client--><g id="elem_Client"><ellipse cx="823.4375" cy="442.8281" fill="#F1F1F1" rx="12.5" ry="12.5" style="stroke:#181818;stroke-width:0.78125;"/><path d="M823.4375,455.3281 L823.4375,497.5156 M803.125,467.8281 L843.75,467.8281 M823.4375,497.5156 L803.125,520.9531 M823.4375,497.5156 L843.75,520.9531 " fill="none" style="stroke:#181818;stroke-width:0.78125;"/><text fill="#000000" font-family="sans-serif" font-size="18.75" lengthAdjust="spacing" textLength="54.6875" x="796.0938" y="540.701">Client</text></g><!--link GatewayIngress to GatewaySvc--><g id="link_GatewayIngress_GatewaySvc"><path d="M614.0625,184.9688 C614.0625,189.4219 614.0625,193.9687 614.0625,198.4219 " fill="none" id="GatewayIngress-GatewaySvc" style="stroke:#181818;stroke-width:1.09375;"/><polygon fill="#181818" points="614.0625,177.2656,607.8125,191.3281,614.0625,185.0781,620.3125,191.3281,614.0625,177.2656" style="stroke:#181818;stroke-width:1.09375;"/><polygon fill="#181818" points="614.0625,205.7344,620.3125,191.6719,614.0625,197.9219,607.8125,191.6719,614.0625,205.7344" style="stroke:#181818;stroke-width:1.09375;"/></g><!--link GatewaySvc to GatewayPod1--><g id="link_GatewaySvc_GatewayPod1"><path d="M509.1875,260 C433.2344,277.4688 331.3125,300.9375 257.0781,318.0156 " fill="none" id="GatewaySvc-GatewayPod1" style="stroke:#181818;stroke-width:1.09375;"/><polygon fill="#181818" points="516.625,257.9219,501.5229,254.9649,509.0092,259.6639,504.3102,267.1502,516.625,257.9219" style="stroke:#181818;stroke-width:1.09375;"/><polygon fill="#181818" points="249.7344,320.0625,264.8364,323.0195,257.3502,318.3205,262.0492,310.8342,249.7344,320.0625" style="stroke:#181818;stroke-width:1.09375;"/></g><!--link GatewaySvc to GatewayPod2--><g id="link_GatewaySvc_GatewayPod2"><path d="M551.1094,265.3438 C520.7188,279.5781 484.3438,296.6094 453.9063,310.8594 " fill="none" id="GatewaySvc-GatewayPod2" style="stroke:#181818;stroke-width:1.09375;"/><polygon fill="#181818" points="557.8438,261.4531,542.4576,261.739,550.7648,264.7581,547.7456,273.0653,557.8438,261.4531" style="stroke:#181818;stroke-width:1.09375;"/><polygon fill="#181818" points="447.0625,314.8125,462.4479,314.4869,454.1329,311.4892,457.1306,303.1742,447.0625,314.8125" style="stroke:#181818;stroke-width:1.09375;"/></g><!--link GatewaySvc to GatewayPod3--><g id="link_GatewaySvc_GatewayPod3"><path d="M616.6406,270.4844 C617.5,281.9531 618.4531,294.7031 619.3125,306.1563 " fill="none" id="GatewaySvc-GatewayPod3" style="stroke:#181818;stroke-width:1.09375;"/><polygon fill="#181818" points="615.9531,262.75,610.7651,277.238,616.5335,270.5409,623.2306,276.3093,615.9531,262.75" style="stroke:#181818;stroke-width:1.09375;"/><polygon fill="#181818" points="620,313.8437,625.188,299.3558,619.4196,306.0528,612.7225,300.2844,620,313.8437" style="stroke:#181818;stroke-width:1.09375;"/></g><!--link HelloSvc to HelloPod1--><g id="link_HelloSvc_HelloPod1"><path d="M381.7656,519.2969 C353.5625,536.625 318.3281,558.2812 290.125,575.6094 " fill="none" id="HelloSvc-HelloPod1" style="stroke:#181818;stroke-width:1.09375;"/><polygon fill="#181818" points="387.8594,514.5938,372.6054,516.6267,381.202,518.682,379.1467,527.2786,387.8594,514.5938" style="stroke:#181818;stroke-width:1.09375;"/><polygon fill="#181818" points="283.9219,580.375,299.1708,578.3049,290.5693,576.2705,292.6037,567.669,283.9219,580.375" style="stroke:#181818;stroke-width:1.09375;"/></g><!--link HelloSvc to HelloPod2--><g id="link_HelloSvc_HelloPod2"><path d="M433.0938,523.5 C433.9063,538.6719 434.8594,556.4531 435.6563,571.6094 " fill="none" id="HelloSvc-HelloPod2" style="stroke:#181818;stroke-width:1.09375;"/><polygon fill="#181818" points="432.6094,515.875,427.092,530.2408,433.0118,523.6771,439.5754,529.5969,432.6094,515.875" style="stroke:#181818;stroke-width:1.09375;"/><polygon fill="#181818" points="436.1406,579.0937,441.658,564.728,435.7382,571.2916,429.1746,565.3718,436.1406,579.0937" style="stroke:#181818;stroke-width:1.09375;"/></g><!--link HelloSvc to HelloPod3--><g id="link_HelloSvc_HelloPod3"><path d="M483.5625,519.0625 C513.9375,536.5781 552.0625,558.5625 582.375,576.0469 " fill="none" id="HelloSvc-HelloPod3" style="stroke:#181818;stroke-width:1.09375;"/><polygon fill="#181818" points="477.3906,514.5938,486.4906,527.0037,484.171,518.4746,492.7001,516.155,477.3906,514.5938" style="stroke:#181818;stroke-width:1.09375;"/><polygon fill="#181818" points="588.3438,580.375,579.2922,567.9297,581.5785,576.4677,573.0405,578.754,588.3438,580.375" style="stroke:#181818;stroke-width:1.09375;"/></g><!--link GatewayPod1 to HelloSvc--><g id="link_GatewayPod1_HelloSvc"><path d="M216.3125,373.3906 C262.7813,397.6875 328.1094,431.8438 374.5313,456.1094 " fill="none" id="GatewayPod1-HelloSvc" style="stroke:#181818;stroke-width:1.09375;"/><polygon fill="#181818" points="210.1719,369.3594,219.7405,381.4117,217.0959,372.9778,225.5299,370.3332,210.1719,369.3594" style="stroke:#181818;stroke-width:1.09375;"/><polygon fill="#181818" points="380.8125,460.2187,371.2439,448.1664,373.8884,456.6004,365.4545,459.2449,380.8125,460.2187" style="stroke:#181818;stroke-width:1.09375;"/></g><!--link GatewayPod2 to HelloSvc--><g id="link_GatewayPod2_HelloSvc"><path d="M400.4375,377.9375 C406.8125,400.2656 415.1094,429.2969 421.4844,451.5938 " fill="none" id="GatewayPod2-HelloSvc" style="stroke:#181818;stroke-width:1.09375;"/><polygon fill="#181818" points="397.8906,370.5937,395.7324,385.8305,400.031,378.1073,407.7542,382.4059,397.8906,370.5937" style="stroke:#181818;stroke-width:1.09375;"/><polygon fill="#181818" points="423.9063,458.5312,426.0525,443.2928,421.76,451.0193,414.0335,446.7268,423.9063,458.5312" style="stroke:#181818;stroke-width:1.09375;"/></g><!--link GatewayPod3 to HelloSvc--><g id="link_GatewayPod3_HelloSvc"><path d="M580.2344,374.6719 C548.4219,398.3906 504.7656,430.9531 472.9219,454.6875 " fill="none" id="GatewayPod3-HelloSvc" style="stroke:#181818;stroke-width:1.09375;"/><polygon fill="#181818" points="585.7969,369.3594,570.7833,372.7369,579.5282,374.0219,578.2432,382.7668,585.7969,369.3594" style="stroke:#181818;stroke-width:1.09375;"/><polygon fill="#181818" points="467.0781,460.2187,482.086,456.8156,473.3388,455.5456,474.6089,446.7985,467.0781,460.2187" style="stroke:#181818;stroke-width:1.09375;"/></g><!--reverse link GatewayIngress to Client--><g id="link_GatewayIngress_Client"><path d="M719.1719,172.9531 C794.2031,195.4844 889.7187,238.125 935.9375,315.5313 C969.9063,372.4062 894.2187,437.0313 850.9531,467.7187 " fill="none" id="GatewayIngress-backto-Client" style="stroke:#FF0000;stroke-width:1.09375;"/><polygon fill="#FF0000" points="712.1563,170.4375,723.879,180.4072,719.6502,172.6455,727.4118,168.4168,712.1563,170.4375" style="stroke:#FF0000;stroke-width:1.09375;"/><text fill="#000000" font-family="sans-serif" font-size="18.75" lengthAdjust="spacing" textLength="75" x="925" y="295.4354">Regular</text></g><!--reverse link GatewaySvc to Client--><g id="link_GatewaySvc_Client"><path d="M674.6094,266.1719 C696.375,279.1875 719.875,295.9375 737.5,315.5313 C767.1719,348.5156 789.3281,393.6094 803.7031,429.0937 " fill="none" id="GatewaySvc-backto-Client" style="stroke:#FF0000;stroke-width:1.09375;"/><polygon fill="#FF0000" points="668.25,261.5469,677.222,274.0497,674.9902,265.4972,683.5426,263.2654,668.25,261.5469" style="stroke:#FF0000;stroke-width:1.09375;"/><text fill="#000000" font-family="sans-serif" font-size="18.75" lengthAdjust="spacing" textLength="146.875" x="775" y="349.3104">Port Fowarding</text></g><!--reverse link HelloSvc to Client--><g id="link_HelloSvc_Client"><path d="M519.1094,487.3281 C607.6094,487.3281 738.9375,487.3281 795.6719,487.3281 " fill="none" id="HelloSvc-backto-Client" style="stroke:#008000;stroke-width:1.09375;"/><polygon fill="#008000" points="511.7031,487.3281,525.7656,493.5781,519.5156,487.3281,525.7656,481.0781,511.7031,487.3281" style="stroke:#008000;stroke-width:1.09375;"/><text fill="#000000" font-family="sans-serif" font-size="18.75" lengthAdjust="spacing" textLength="146.875" x="579.2969" y="456.2948">Port Fowarding</text><text fill="#000000" font-family="sans-serif" font-size="18.75" lengthAdjust="spacing" textLength="229.6875" x="537.8906" y="478.121">(Direct Communication)</text></g><!--reverse link HelloPod to Client--><g id="link_HelloPod_Client"><path d="M1111.7656,487.3281 C1031.9219,487.3281 906.2656,487.3281 851.0469,487.3281 " fill="none" id="HelloPod-backto-Client" style="stroke:#008000;stroke-width:1.09375;"/><polygon fill="#008000" points="1119.2188,487.3281,1105.1563,481.0781,1111.4063,487.3281,1105.1563,493.5781,1119.2188,487.3281" style="stroke:#008000;stroke-width:1.09375;"/><text fill="#000000" font-family="sans-serif" font-size="18.75" lengthAdjust="spacing" textLength="214.0625" x="878.9063" y="478.1698">Direct Communication</text></g><!--link HelloPod to OpenTelemetryInfra--><g id="link_HelloPod_OpenTelemetryInfra"><path d="M1127.1563,514.6406 C1043.3438,552.7187 879.0938,624.5938 734.375,671.625 C702.8125,681.8906 668.2031,691.2812 635.8906,699.2656 " fill="none" id="HelloPod-to-OpenTelemetryInfra" style="stroke:#181818;stroke-width:1.09375;"/><polygon fill="#181818" points="628.4063,701.4844,643.5498,704.2211,635.9959,699.6316,640.5854,692.0777,628.4063,701.4844" style="stroke:#181818;stroke-width:1.09375;"/></g><!--link HelloPod1 to OpenTelemetryInfra--><g id="link_HelloPod1_OpenTelemetryInfra"><path d="M275.8125,634.6406 C294.0313,647.0156 317.0469,661.3906 339.0625,671.625 C360.4844,681.5938 384.1875,690.4063 407.0156,697.875 " fill="none" id="HelloPod1-to-OpenTelemetryInfra" style="stroke:#181818;stroke-width:1.09375;"/><polygon fill="#181818" points="413.8281,700.5781,402.3797,690.2946,406.3967,698.1679,398.5234,702.1849,413.8281,700.5781" style="stroke:#181818;stroke-width:1.09375;"/></g><!--link HelloPod2 to OpenTelemetryInfra--><g id="link_HelloPod2_OpenTelemetryInfra"><path d="M453.7813,634.5781 C464.7812,651.7656 479.4219,674.6406 491.3437,693.2344 " fill="none" id="HelloPod2-to-OpenTelemetryInfra" style="stroke:#181818;stroke-width:1.09375;"/><polygon fill="#181818" points="496.2656,699.3594,493.9553,684.145,492.0568,692.7775,483.4243,690.8791,496.2656,699.3594" style="stroke:#181818;stroke-width:1.09375;"/></g><!--link HelloPod3 to OpenTelemetryInfra--><g id="link_HelloPod3_OpenTelemetryInfra"><path d="M607.9375,634.5781 C589.5625,652.2187 564.9688,675.8594 545.3438,694.7344 " fill="none" id="HelloPod3-to-OpenTelemetryInfra" style="stroke:#181818;stroke-width:1.09375;"/><polygon fill="#181818" points="540.4531,699.3594,554.9143,694.0971,546.0769,693.9364,546.2376,685.0991,540.4531,699.3594" style="stroke:#181818;stroke-width:1.09375;"/></g><!--link OpenTelemetryInfra to apm_server--><g id="link_OpenTelemetryInfra_apm_server"><path d="M512.5,754.7031 C512.5,785.375 512.5,837.2187 512.5,871.5156 " fill="none" id="OpenTelemetryInfra-to-apm_server" style="stroke:#181818;stroke-width:1.09375;"/><polygon fill="#181818" points="512.5,879.125,518.75,865.0625,512.5,871.3125,506.25,865.0625,512.5,879.125" style="stroke:#181818;stroke-width:1.09375;"/></g><!--SRC=[ZLHTYzim47pthrYSb_OXvM8d548fN7DtRIcbeSbRUnJ5NZiYicGaEQ4jzzyhAuaZVzGeO8XNCxkpEzQg0-KbaQG0IVX1OGdHNQ2QO5fIc2tS295IdBPxcXmuAWLtRzuwXoL93YJ7BTKCxndDUO5S0yDCEw1AOK8KVX0oHUbcchk5CICLqq-2wmtzWp2Bd4E9YIOyPxqSio0WYHOImXMZfdG8HC7vRn045tKGVgbsA3bgh0yhfL66C35ozth7AeI_0PXVKmJ2RoNoBJ8iKClVy9bdajZChRWD1vRQ57h08p9HsYayyYELmax4L3ljgRvMwbJxI3IUI5qdbwOfM-aIkuHWiekpnJmQOszG7cc2BdjpJ7oOQv72pEMPmCoN67M8aIynxX3Z7h4pWtVJL9puzBtJNHTQDzo5rSruuY9FN1mCDVS96HCj6sp4cf0jo7nu96VMpGBxVZP0c1kQupWfQf4YFrBS8iKzKgExwRrHvO69F33E1DrlheqRCDZsw8EA_uDwCMl1FESL0TDwK_sOI4oVRmPVlxSbVCUyOaIEeklsbcQgKiEJE16PKfvt22OTycT7IO_maxzweBLLi195KN6Q44q5V-tki4lEzShPSUjLRtKrBhSyRYn-6TLM8vSm9CKHyiY8qZGn4aHbglGKtA-_sbjGBraZWPJ5BsLVwyatPQxk3ApKsnNm04K-e7WC5FHZ3Vmc_Xy0]--></g></svg>